<svg xmlns="http://www.w3.org/2000/svg" viewBox="0 0 1024 1024" role="img" aria-label="DEXScreener wooden icon">
  <defs>
    <linearGradient id="wood" x1="0" y1="0" x2="1" y2="1"><stop offset="0" stop-color="#fac77a"/><stop offset="0.5" stop-color="#b96923"/><stop offset="1" stop-color="#6f3510"/></linearGradient>
    <filter id="shadow" x="-20%" y="-20%" width="140%" height="140%"><feDropShadow dx="0" dy="18" stdDeviation="18" flood-color="#000" flood-opacity=".24"/></filter>
    <pattern id="grain" width="76" height="76" patternUnits="userSpaceOnUse"><path d="M5 18C24 8 50 30 72 14M8 50C30 40 50 68 72 52M20 74C36 58 54 84 72 70" fill="none" stroke="#4b250c" stroke-width="5" opacity=".18" stroke-linecap="round"/></pattern>
  </defs>
  <rect width="1024" height="1024" fill="#fff"/>
  <g filter="url(#shadow)" fill="url(#wood)">
    <path d="M512 154c98 0 184 34 254 101l-94 24 143 117 33-168 52 78c-34 19-73 48-109 86 25 37 38 80 38 128 0 148-129 270-317 270S195 668 195 520c0-48 13-91 38-128-36-38-75-67-109-86l52-78 33 168 143-117-94-24c70-67 156-101 254-101z"/>
    <path d="M512 154c98 0 184 34 254 101l-94 24 143 117 33-168 52 78c-34 19-73 48-109 86 25 37 38 80 38 128 0 148-129 270-317 270S195 668 195 520c0-48 13-91 38-128-36-38-75-67-109-86l52-78 33 168 143-117-94-24c70-67 156-101 254-101z" fill="url(#grain)"/>
    <path d="M512 154c98 0 184 34 254 101l-94 24 143 117 33-168 52 78c-34 19-73 48-109 86 25 37 38 80 38 128 0 148-129 270-317 270S195 668 195 520c0-48 13-91 38-128-36-38-75-67-109-86l52-78 33 168 143-117-94-24c70-67 156-101 254-101z" fill="none" stroke="#61300f" stroke-width="26" stroke-linejoin="round"/>
    <path d="M360 490c52-70 101-70 152 0 51-70 100-70 152 0" fill="none" stroke="#fff" stroke-width="44" stroke-linecap="round" opacity=".9"/>
    <path d="M367 630c85 44 205 44 290 0" fill="none" stroke="#61300f" stroke-width="30" stroke-linecap="round"/>
  </g>
</svg>