<svg xmlns="http://www.w3.org/2000/svg" viewBox="0 0 1024 1024" role="img" aria-label="Pump.fun wooden icon">
  <defs>
    <linearGradient id="wood" x1="0" y1="0" x2="1" y2="1">
      <stop offset="0" stop-color="#f6c06d"/>
      <stop offset="0.45" stop-color="#b96b25"/>
      <stop offset="1" stop-color="#7a3f16"/>
    </linearGradient>
    <linearGradient id="woodLight" x1="0" y1="0" x2="1" y2="1">
      <stop offset="0" stop-color="#ffe4a8"/>
      <stop offset="1" stop-color="#d48b3c"/>
    </linearGradient>
    <filter id="shadow" x="-20%" y="-20%" width="140%" height="140%">
      <feDropShadow dx="0" dy="18" stdDeviation="18" flood-color="#000" flood-opacity="0.22"/>
    </filter>
    <pattern id="grain" width="80" height="80" patternUnits="userSpaceOnUse">
      <path d="M4 18C26 8 48 30 76 14M6 54C30 42 52 70 78 52M18 76C34 62 56 86 74 70" fill="none" stroke="#5b2d10" stroke-width="5" opacity=".18" stroke-linecap="round"/>
    </pattern>
  </defs>
  <rect width="1024" height="1024" fill="#fff"/>
  <g filter="url(#shadow)" transform="translate(512 512) rotate(-35) translate(-512 -512)">
    <rect x="190" y="310" width="644" height="404" rx="202" fill="url(#wood)"/>
    <path d="M512 310h120c112 0 202 90 202 202s-90 202-202 202H512z" fill="url(#woodLight)"/>
    <path d="M190 512h644" stroke="#5b2d10" stroke-width="38" stroke-linecap="round" opacity=".65"/>
    <rect x="190" y="310" width="644" height="404" rx="202" fill="url(#grain)" opacity=".9"/>
    <rect x="190" y="310" width="644" height="404" rx="202" fill="none" stroke="#6e3712" stroke-width="32"/>
    <path d="M305 600c30 28 78 42 120 32" fill="none" stroke="#ffd68b" stroke-width="18" stroke-linecap="round" opacity=".75"/>
    <path d="M330 552c16 11 33 17 52 18" fill="none" stroke="#ffd68b" stroke-width="12" stroke-linecap="round" opacity=".75"/>
  </g>
</svg>