<svg xmlns="http://www.w3.org/2000/svg" width="760" height="760" viewBox="0 0 760 760">
  <defs>
    <filter id="grain" x="-10%" y="-10%" width="120%" height="120%">
      <feTurbulence type="fractalNoise" baseFrequency="0.72" numOctaves="2" seed="17" stitchTiles="stitch"/>
      <feColorMatrix type="saturate" values="0"/>
      <feComponentTransfer><feFuncA type="table" tableValues="0 0.065"/></feComponentTransfer>
    </filter>
  </defs>
  <rect width="760" height="760" fill="#fff3c8"/>
  <g fill="none" stroke="#d8b66d" stroke-width="10" opacity="0.15" stroke-linecap="round" stroke-linejoin="round">
    <circle cx="150" cy="155" r="62"/>
    <circle cx="150" cy="155" r="24"/>
    <path d="M150 63v-34M150 281v-34M58 155H24M276 155h-34M85 90l-24-24M239 244l-24-24M85 220l-24 24M239 66l-24 24"/>
    <path d="M516 98c55 30 88 83 88 141s-33 111-88 141M500 126c34 25 54 66 54 113s-20 88-54 113M484 154c17 19 27 48 27 85s-10 66-27 85"/>
    <path d="M518 522l22 47 49 7-36 35 9 50-44-24-44 24 9-50-36-35 49-7z"/>
    <path d="M157 522c0-45 36-81 81-81s81 36 81 81-36 81-81 81-81-36-81-81zM197 522h82M238 481v82"/>
    <path d="M623 485c-40 0-73 33-73 73s33 73 73 73 73-33 73-73-33-73-73-73zm0 34c22 0 39 17 39 39s-17 39-39 39-39-17-39-39 17-39 39-39z"/>
  </g>
  <g fill="#d8b66d" opacity="0.10">
    <circle cx="385" cy="92" r="8"/><circle cx="430" cy="140" r="5"/><circle cx="92" cy="394" r="5"/><circle cx="688" cy="344" r="7"/><circle cx="370" cy="660" r="6"/><circle cx="676" cy="688" r="4"/>
  </g>
  <rect width="760" height="760" filter="url(#grain)" opacity="0.42"/>
</svg>