<svg xmlns="http://www.w3.org/2000/svg" width="1900" height="210" viewBox="0 0 1900 210" preserveAspectRatio="none">
  <path fill="#fff3c8" d="M0 0h1900v69c-43-7-83-4-124 12-47 19-83 29-135 14-36-10-62-28-107-25-49 3-70 29-116 41-58 15-104-4-155-20-48-15-91-11-140 8-58 23-105 30-163 7-54-22-97-24-152-5-60 20-106 19-163-5-55-24-96-24-153-1-53 22-99 25-154 5-47-17-85-18-132 1-45 18-77 31-126 21V0Z"/>
  <path fill="#f6e9bd" opacity=".78" d="M0 0h1900v42c-58-2-90 12-136 28-53 18-96 14-147-4-55-20-99-19-153 5-53 23-95 24-150 4-57-21-101-20-158 2-55 21-101 23-158 3-53-19-98-19-153 1-60 22-104 22-164 1-55-20-97-18-151 4-54 22-96 23-151 5-56-18-102-16-160 8-42 17-79 23-119 12V0Z"/>
</svg>